<svg xmlns="http://www.w3.org/2000/svg" viewBox="155 375 515 515" fill="#3B82F6">
  <path transform="scale(1.01626 1.01626)" d="M255.786 473.789C279.548 473.083 307.811 473.784 331.804 473.897L456.654 474.064L574.639 473.801C596.939 473.708 619.384 473.566 641.682 473.775C644.661 473.802 648.55 474.016 650.684 476.157C652.043 477.521 653.074 479.902 652.807 481.752C650.578 497.214 639.17 514.204 628.62 524.607C594.68 558.075 557.598 553.349 514.414 553.33C490.295 553.464 466.176 553.474 442.057 553.359L254.19 553.499C233.45 553.701 212.708 553.705 191.968 553.513C186.568 553.427 168.813 554.425 166.202 550.309C166.385 544.984 181.319 536.527 186.212 535.427C198.302 532.71 211.85 533.291 224.219 533.27L291.687 533.211C304.723 533.18 319.341 534.09 332.174 531.942C338.954 530.808 345.499 527.546 349.514 521.814C352.393 517.705 353.929 512.028 352.848 507.059C351.673 501.662 347.187 498.127 342.224 496.308C320.018 488.169 247.299 500.431 235.132 491.439C233.561 490.278 232.559 488.696 232.424 486.725C232.238 484.017 233.535 481.263 235.314 479.291C240.646 473.381 248.546 473.963 255.786 473.789Z"/>
  <path transform="scale(1.01626 1.01626)" d="M380.418 591.975C404.061 590.649 436.727 591.96 461.086 591.91L517.795 591.766C527.644 591.749 549.887 590.745 558.101 593.652C568.61 604.269 543.524 635.335 535.871 643.28C525.293 654.17 512.04 662.091 497.438 666.25C476.465 672.233 453.362 670.744 431.847 670.95C401.37 671.243 371.407 670.395 340.862 670.981C327.544 672.216 312.433 670.329 298.679 671.474C289.19 670.372 279.792 671.586 270.449 671.34C253.612 670.896 235.017 670.841 218.312 670.771L184.838 670.55C179.963 670.5 164.931 671.366 161.691 668.318C161.719 666.567 162.066 666.043 163.365 664.607C179.18 647.123 211.91 650.839 233.299 650.544C247.635 650.347 261.795 650.836 275.868 649.873C302.888 648.023 308.525 635.301 323.496 617.12C334.806 603.384 362.541 593.077 380.418 591.975Z"/>
  <path transform="scale(1.01626 1.01626)" d="M330.075 708.976C349.931 708.146 371.225 709.956 391.222 709.267C394.957 709.139 400.254 709.357 403.611 710.949C404.691 712.825 404.478 711.843 404.271 713.999C401.262 719.094 343.959 757.264 335.319 763.452C325.91 770.045 303.025 787.392 294.866 788.005C271.485 789.761 288.605 725.603 298.009 717.603C307.468 709.556 320.323 709.328 330.075 708.976Z"/>
</svg>
